<?xml version="1.0" standalone="no"?>
<!DOCTYPE svg PUBLIC "-//W3C//DTD SVG 20010904//EN"
 "http://www.w3.org/TR/2001/REC-SVG-20010904/DTD/svg10.dtd">
<svg version="1.0" xmlns="http://www.w3.org/2000/svg"
 width="208.000000pt" height="146.000000pt" viewBox="0 0 208.000000 146.000000"
 preserveAspectRatio="xMidYMid meet">
<metadata>
Created by potrace 1.16, written by Peter Selinger 2001-2019
</metadata>
<g transform="translate(0.000000,146.000000) scale(0.100000,-0.100000)"
fill="#000000" stroke="none">
<path d="M0 730 l0 -730 1040 0 1040 0 0 730 0 730 -1040 0 -1040 0 0 -730z
m410 570 c17 -17 20 -33 20 -120 0 -139 -2 -140 -160 -140 -115 0 -122 1 -145
25 -23 22 -25 32 -25 113 0 75 3 93 21 116 20 26 22 26 145 26 111 0 126 -2
144 -20z m1549 -16 c16 -21 21 -41 21 -90 0 -74 -13 -108 -47 -123 -14 -7 -88
-11 -183 -11 l-160 0 0 -460 0 -459 63 -3 c62 -3 62 -3 65 -35 l3 -33 -73 0
c-50 0 -81 5 -96 16 l-22 15 0 495 c0 481 1 495 20 514 18 18 33 20 190 20
l170 0 0 60 0 60 -632 -2 -633 -3 -3 -462 -2 -463 355 0 c352 0 354 0 375 -22
16 -18 20 -35 20 -98 0 -52 -5 -82 -16 -98 l-15 -22 -480 0 c-466 0 -480 1
-499 20 -19 19 -20 33 -20 395 l0 375 -120 0 -120 0 0 35 0 35 130 0 c126 0
132 -1 155 -25 l25 -24 0 -376 0 -375 445 0 445 0 0 60 0 60 -352 0 c-313 0
-353 2 -370 17 -17 15 -18 44 -18 509 l0 493 22 15 c20 14 101 16 679 16 l658
0 20 -26z"/>
<path d="M170 1183 l0 -73 101 0 100 0 -2 69 -2 70 -99 3 -98 3 0 -72z"/>
</g>
</svg>
